IKResults
version=1
nRows=10
nColumns=40
inDegrees=yes

Units are S.I. units (second, meters, Newtons, ...)
Angles are in degrees.

endheader
time	pelvis_tilt	pelvis_list	pelvis_rotation	pelvis_tx	pelvis_ty	pelvis_tz	hip_flexion_r	hip_adduction_r	hip_rotation_r	knee_angle_r	knee_angle_r_beta	ankle_angle_r	subtalar_angle_r	mtp_angle_r	hip_flexion_l	hip_adduction_l	hip_rotation_l	knee_angle_l	knee_angle_l_beta	ankle_angle_l	subtalar_angle_l	mtp_angle_l	lumbar_extension	lumbar_bending	lumbar_rotation	arm_flex_r	arm_add_r	arm_rot_r	elbow_flex_r	pro_sup_r	wrist_flex_r	wrist_dev_r	arm_flex_l	arm_add_l	arm_rot_l	elbow_flex_l	pro_sup_l	wrist_flex_l	wrist_dev_l
      0.46000000	     16.65949218	     -5.35486993	      5.04707349	     -0.32592489	      0.94930839	     -0.98461105	     -9.35750166	      5.66148665	    -20.35529982	    -14.60537957	     -0.25491196	      4.04715197	      3.13456737	     -5.85979171	    -13.99917284	      9.29557809	      3.72373897	    -57.94280707	     -1.01129276	     -0.72912928	     18.13015448	     14.85797693	    -22.73363722	      6.97012708	     -1.34697338	     -5.38193553	    -10.65066651	     -0.30434733	     23.78681793	     89.95437384	      0.00000000	      0.00000000	      6.72402385	      6.63704358	     11.22998086	     27.86295381	     89.95437384	      0.00000000	      0.00000000
      0.47000000	     16.86227639	     -4.96613538	      4.94022638	     -0.31693909	      0.95031540	     -0.98332987	    -10.41464065	      5.43397276	    -20.25327677	    -14.27913800	     -0.24921797	      4.52042873	      3.32621715	     -5.89901296	    -12.87445569	      8.89723260	      3.77673865	    -58.91978026	     -1.02834416	      0.01328834	     18.01885820	     14.57219664	    -23.07891609	      6.42236761	     -1.07496151	     -4.80209875	    -10.73545390	     -0.16114174	     24.36905859	     89.95437384	      0.00000000	      0.00000000	      6.20382312	      6.60351556	     11.48632053	     26.46443608	     89.95437384	      0.00000000	      0.00000000
      0.48000000	     16.94927810	     -4.67874115	      4.72671355	     -0.30766231	      0.95111638	     -0.98206788	    -11.32519105	      5.27363989	    -20.15534242	    -13.99491912	     -0.24425742	      4.99712635	      3.46558997	     -5.91375574	    -11.74232894	      8.40417196	      3.69721534	    -59.58511953	     -1.03995652	      0.90757981	     17.84709717	     14.21066800	    -23.22837862	      5.95441326	     -0.71036691	     -4.26215923	    -10.90215143	     -0.07236329	     24.94292564	     89.95437384	      0.00000000	      0.00000000	      5.59708946	      6.54787067	     11.83709177	     25.10141258	     89.95437384	      0.00000000	      0.00000000
      0.49000000	     16.99350701	     -4.25689187	      4.50526932	     -0.29876392	      0.95191997	     -0.98122719	    -12.21128227	      4.95686052	    -19.70467617	    -13.62872477	     -0.23786612	      5.44112082	      3.83904891	     -6.08381425	    -10.63602041	      7.59926317	      3.37878850	    -59.90584938	     -1.04555431	      2.13594504	     17.64900269	     13.11715549	    -23.40921838	      5.38455672	     -0.42063184	     -3.86703828	    -11.24473270	      0.40923308	     25.91959296	     89.95437384	      0.00000000	      0.00000000	      5.34140032	      6.22451777	     13.51212703	     23.12520304	     89.95437384	      0.00000000	      0.00000000
      0.50000000	     16.99839370	     -3.99796249	      4.25002354	     -0.28986084	      0.95239250	     -0.97992528	    -12.84080582	      4.71921318	    -19.79196719	    -13.68266858	     -0.23880762	      5.71028268	      3.69981783	     -6.01988433	     -9.36354851	      7.30332976	      3.68786879	    -60.22628862	     -1.05114703	      2.54345140	     17.55664979	     12.79851344	    -23.52665657	      4.92001237	     -0.08116443	     -3.21789674	    -11.37558961	      0.39853239	     26.39609268	     89.95437384	      0.00000000	      0.00000000	      4.43000585	      6.30090858	     13.50065020	     22.40460403	     89.95437384	      0.00000000	      0.00000000
      0.51000000	     16.92637774	     -3.61888942	      4.05297471	     -0.28101024	      0.95279537	     -0.97889900	    -13.54902131	      4.44788784	    -19.23132846	    -13.40081163	     -0.23388829	      6.30735534	      3.90923987	     -6.06033735	     -8.10928397	      6.60914191	      3.46022546	    -60.24233359	     -1.05142707	      3.73702951	     17.38437936	     12.29913797	    -23.53883848	      4.35071051	      0.20270953	     -2.72078201	    -11.56085384	      0.44588132	     27.12217082	     89.95437384	      0.00000000	      0.00000000	      3.91460226	      6.34845989	     13.65058251	     20.92337090	     89.95437384	      0.00000000	      0.00000000
      0.52000000	     16.83591087	     -3.37081190	      3.80685106	     -0.27215385	      0.95299326	     -0.97766160	    -14.04358948	      4.21090499	    -19.24026316	    -13.47717200	     -0.23522103	      6.59456130	      3.74839059	     -5.99327106	     -6.78668362	      6.32751205	      3.78632823	    -60.13202406	     -1.04950181	      4.03978501	     17.17820936	     11.96092419	    -23.55228152	      3.88894374	      0.46285935	     -2.10997653	    -11.67520771	      0.39902017	     27.74585047	     89.95437384	      0.00000000	      0.00000000	      3.02909385	      6.44509528	     13.68994711	     20.16365762	     89.95437384	      0.00000000	      0.00000000
      0.53000000	     16.78054963	     -3.02989998	      3.63429968	     -0.26333451	      0.95325435	     -0.97671682	    -14.66196785	      3.92337694	    -18.93910272	    -13.40877221	     -0.23402722	      7.10482146	      3.68610842	     -5.99005886	     -5.55658979	      5.84527176	      3.89951956	    -59.73206662	     -1.04252123	      5.25376705	     17.06460547	     11.53533055	    -23.58073374	      3.37797417	      0.71693683	     -1.58973170	    -11.85614690	      0.33234406	     28.45390576	     89.95437384	      0.00000000	      0.00000000	      2.40392723	      6.53128423	     13.79201065	     19.02649122	     89.95437384	      0.00000000	      0.00000000
      0.54000000	     16.71706338	     -2.61328807	      3.32659018	     -0.25447268	      0.95340598	     -0.97598624	    -15.26381186	      3.49830177	    -18.40007209	    -13.31569010	     -0.23240263	      7.49616865	      3.64350932	     -5.96998692	     -4.48315961	      5.12843708	      3.90371304	    -59.02917734	     -1.03025350	      5.93835462	     16.88748309	     11.00216078	    -23.61457062	      2.78093616	      1.08805600	     -1.21522154	    -12.09928964	      0.22737009	     29.41303179	     89.95437384	      0.00000000	      0.00000000	      1.83397914	      6.54767299	     13.91689688	     17.83367786	     89.95437384	      0.00000000	      0.00000000
      0.55000000	     16.74987545	     -2.20782121	      3.02758491	     -0.24548104	      0.95362101	     -0.97506045	    -15.91134062	      3.08935786	    -18.01757033	    -13.32027429	     -0.23248264	      7.76741553	      3.39075008	     -5.90405515	     -3.54827350	      4.57249089	      4.17723029	    -58.07156088	     -1.01353994	      6.48341369	     16.83540627	     10.39259971	    -23.73873435	      2.17053140	      1.41083464	     -0.77232592	    -12.26912591	      0.09177145	     30.25716675	     89.95437384	      0.00000000	      0.00000000	      1.13755865	      6.64389724	     13.92963826	     16.96245045	     89.95437384	      0.00000000	      0.00000000
